<?xml version="1.0" encoding="UTF-8" standalone="no"?><!DOCTYPE svg PUBLIC "-//W3C//DTD SVG 1.1//EN" "http://www.w3.org/Graphics/SVG/1.1/DTD/svg11.dtd"><svg width="100%" height="100%" viewBox="0 0 72 17" version="1.1" xmlns="http://www.w3.org/2000/svg" xmlns:xlink="http://www.w3.org/1999/xlink" xml:space="preserve" style="fill-rule:evenodd;clip-rule:evenodd;stroke-linejoin:round;stroke-miterlimit:1.41421;"><g><path d="M52.594,5.175c0.51,0 1.022,-0.009 1.515,0.022c0.344,0.022 0.69,0.052 1.026,0.079c0.288,0.022 0.579,0.056 0.861,0.109c0.285,0.054 0.568,0.087 0.848,0.154c0.454,0.107 0.914,0.205 1.341,0.368c0.147,0.058 0.297,0.111 0.44,0.175c0.053,0.022 0.105,0.043 0.157,0.066c-0.064,0.135 -0.127,0.268 -0.191,0.401c-0.138,0.3 -0.269,0.602 -0.385,0.909c-0.047,0.128 -0.095,0.252 -0.142,0.381c-0.07,-0.056 -0.145,-0.122 -0.214,-0.177c-0.135,-0.109 -0.264,-0.223 -0.404,-0.319c-0.45,-0.318 -0.955,-0.578 -1.481,-0.756c-0.416,-0.141 -0.851,-0.272 -1.302,-0.346c-2.562,-0.413 -5.674,-0.008 -7.075,2.121c-0.246,0.375 -0.419,0.787 -0.53,1.228c-0.031,0.123 -0.064,0.262 -0.078,0.391c-0.033,0.301 -0.072,0.595 -0.062,0.921c0.02,0.627 0.123,1.236 0.352,1.759c0.204,0.467 0.477,0.886 0.849,1.271c0.639,0.657 1.502,1.044 2.355,1.29c0.906,0.253 1.898,0.334 2.939,0.334c0.456,-0.013 0.8,-0.037 1.056,-0.064c0.161,-0.017 0.702,-0.098 0.85,-0.126c0.112,-0.024 0.224,-0.049 0.336,-0.074c0.192,-0.045 0.388,-0.096 0.576,-0.154c0.043,-0.015 0.173,-0.065 0.173,-0.065c0,0 0.001,-0.16 0.001,-0.217c0,-0.206 0,-0.417 0,-0.621c0,-0.798 0.01,-1.59 0.01,-2.382c-0.224,0 -0.411,0.005 -0.629,0.025c-0.114,0.005 -0.247,0.01 -0.375,0.025c-0.208,0.017 -0.373,0.032 -0.608,0.054c0.013,-0.101 0.064,-0.293 0.064,-0.595c0,-0.302 -0.075,-0.583 -0.075,-0.583c0,0 0.289,0.035 0.404,0.041c0.173,0.011 0.366,0.034 0.536,0.037c0.29,0.021 0.475,0.026 0.806,0.025c0.7,0 1.4,0 2.101,0l0,4.578c0,0.058 -0.004,0.257 -0.004,0.257c0,0 -0.142,0.04 -0.191,0.052c-0.195,0.044 -0.389,0.089 -0.584,0.135c-0.73,0.16 -1.473,0.281 -2.234,0.377c-0.953,0.124 -1.929,0.187 -2.951,0.187c-0.913,0 -1.782,-0.043 -2.613,-0.197c-0.396,-0.071 -0.788,-0.134 -1.159,-0.248c-0.499,-0.163 -0.984,-0.312 -1.441,-0.546c-0.617,-0.313 -1.192,-0.687 -1.7,-1.225c-0.456,-0.487 -0.784,-1.047 -1.002,-1.65c-0.21,-0.583 -0.316,-1.254 -0.283,-1.951c0.023,-0.493 0.102,-0.931 0.236,-1.361c0.063,-0.199 0.149,-0.394 0.244,-0.583c0.715,-1.433 2.099,-2.314 3.536,-2.83c0.414,-0.148 0.842,-0.272 1.282,-0.367c0.3,-0.065 0.88,-0.167 1.354,-0.222c0.473,-0.056 1.251,-0.104 1.465,-0.113Z" style="fill:#005b9d;fill-rule:nonzero;"/><path d="M25.566,5.383c0,0 0.385,0.051 0.829,0.051c0.408,0 0.736,-0.054 0.736,-0.054c0,0 -0.008,2.802 -0.008,4.203c0,0.531 0,1.061 0,1.603c0,0.509 -0.001,1.001 -0.085,1.46c-0.083,0.449 -0.24,0.852 -0.438,1.242c-0.184,0.36 -0.454,0.681 -0.755,0.973c-0.41,0.398 -0.874,0.667 -1.363,0.903c-0.342,0.168 -0.714,0.294 -1.088,0.386c-0.726,0.181 -1.49,0.294 -2.296,0.32c-0.343,0.01 -0.71,0.001 -1.045,-0.009c-1.066,-0.034 -2.092,-0.174 -2.999,-0.52c-0.257,-0.102 -0.499,-0.215 -0.742,-0.337c-0.307,-0.161 -0.62,-0.356 -0.877,-0.606c-0.846,-0.818 -1.111,-1.805 -1.149,-3.03c0,-0.404 0,-0.806 -0.001,-1.213l0,-5.367c0,0 0.524,0.046 1.149,0.046c0.624,0 1.034,-0.051 1.095,-0.051c0,1.809 0,3.618 0,5.432c0.001,0.324 0.001,0.643 0.001,0.97c0.029,0.944 0.242,1.98 0.904,2.6c0.952,0.894 2.387,1.026 3.798,1.026c0.198,-0.003 0.567,-0.008 0.93,-0.061c0.341,-0.049 0.842,-0.175 0.984,-0.225c0.584,-0.216 1.174,-0.511 1.585,-1.041c0.265,-0.338 0.459,-0.691 0.594,-1.099c0.232,-0.699 0.241,-1.478 0.241,-2.294c0,-0.442 0,-0.884 0,-1.327c0,-1.327 0,-3.981 0,-3.981Z" style="fill:#005b9d;fill-rule:nonzero;"/><path d="M40.84,5.391c0.219,0.02 0.361,0.049 0.806,0.049c0.444,0 0.74,-0.045 0.753,-0.049c0,3.635 0,10.87 0,10.87l-1.1,0.003c0,0 -0.048,-0.044 -0.081,-0.073c-0.135,-0.112 -0.266,-0.229 -0.401,-0.348c-0.137,-0.111 -0.271,-0.222 -0.41,-0.337c-0.368,-0.289 -0.736,-0.582 -1.107,-0.869c-1.881,-1.475 -3.764,-2.942 -5.647,-4.421c-0.613,-0.478 -1.226,-0.956 -1.839,-1.435c-0.18,-0.138 -0.36,-0.281 -0.54,-0.424c-0.023,-0.017 -0.101,-0.087 -0.124,-0.087c0,-0.014 0.003,-0.011 -0.011,-0.011c0,2.68 0,8.008 0,8.008c0,0 -0.365,-0.056 -0.739,-0.056c-0.394,0 -0.814,0.056 -0.818,0.056l0,-10.876l1.255,0c0,0 0.111,0.086 0.158,0.124c0.141,0.11 0.283,0.221 0.424,0.331c0.557,0.435 1.113,0.869 1.669,1.303c1.745,1.362 3.493,2.728 5.238,4.09c0.628,0.49 1.257,0.98 1.886,1.47c0.062,0.044 0.619,0.483 0.619,0.485c0.003,0 0.007,0 0.009,0c0,-2.606 0,-5.195 0,-7.803Z" style="fill:#005b9d;fill-rule:nonzero;"/><path d="M60.8,5.39c3.654,0 7.308,0 10.963,0c-0.026,0.219 -0.077,0.43 -0.074,0.679c0.003,0.254 0.078,0.617 0.083,0.659c-0.231,-0.03 -0.464,-0.06 -0.697,-0.089c-0.729,-0.081 -1.628,-0.106 -1.781,-0.107c-0.558,-0.017 -1.145,-0.009 -1.712,-0.009c-0.067,-0.003 -0.136,-0.007 -0.205,-0.01c-0.582,0 -1.181,-0.002 -1.751,-0.01c-0.861,0 -1.721,0 -2.583,0c0,1.169 0,2.229 0,3.404c2.138,0 4.277,0 6.414,0c0.08,-0.003 0.572,-0.019 0.636,-0.019c0.06,-0.003 1.112,-0.064 1.188,-0.064c-0.018,0.102 -0.072,0.324 -0.072,0.6c0,0.272 0.046,0.392 0.062,0.593c-0.208,-0.006 -0.388,-0.018 -0.598,-0.031c-0.369,-0.019 -0.695,-0.036 -1.113,-0.047c-0.543,-0.001 -1.086,-0.001 -1.629,-0.002c-1.629,0 -3.259,0 -4.888,0c0,1.381 0,2.832 0,4.217c0.834,0 1.668,0 2.501,0c0.24,0.001 0.741,-0.01 0.994,-0.01c0.235,0 0.58,-0.003 0.808,-0.01c0.236,-0.002 0.53,-0.011 0.697,-0.011c0.248,0 0.475,-0.01 0.625,-0.01c0.157,-0.005 0.846,-0.014 1.046,-0.022c0.07,-0.001 0.254,-0.011 0.327,-0.011c0.09,-0.002 0.631,-0.029 0.861,-0.053c0.23,-0.023 0.881,-0.09 0.912,-0.094c0.027,-0.003 0.054,-0.006 0.082,-0.01c-0.019,0.133 -0.072,0.344 -0.072,0.693c0,0.377 0.045,0.417 0.072,0.632c-3.699,0 -7.397,0 -11.096,0c0,-3.618 0,-7.239 0,-10.858Z" style="fill:#005b9d;fill-rule:nonzero;"/><path d="M2.575,10.895c0,1.391 0,2.88 0,4.274c1.441,0 2.882,0 4.323,0c0.642,-0.021 0.981,-0.104 1.347,-0.214c0.31,-0.089 0.598,-0.207 1.016,-0.512c0.291,-0.205 0.539,-0.56 0.646,-0.889c0.165,-0.502 0.064,-1.194 -0.217,-1.593c-0.162,-0.227 -0.4,-0.401 -0.632,-0.531c-0.318,-0.171 -0.669,-0.254 -1.031,-0.351c-0.29,-0.068 -0.605,-0.103 -0.914,-0.126c-0.602,-0.045 -1.227,-0.058 -1.864,-0.058c-0.892,0 -1.783,0 -2.674,0ZM2.575,6.468c0,1.184 0,3.444 0,3.444l1.7,0.002c0,0 0.516,-0.01 0.687,-0.01c0.577,-0.002 1.313,-0.043 1.711,-0.083c0.398,-0.044 0.871,-0.08 1.326,-0.221c0.295,-0.096 0.629,-0.254 0.883,-0.432c0.438,-0.315 0.718,-0.74 0.691,-1.316c-0.014,-0.304 -0.091,-0.524 -0.276,-0.744c-0.155,-0.18 -0.367,-0.296 -0.575,-0.376c-0.622,-0.242 -1.524,-0.27 -2.356,-0.263c-0.427,0.003 -0.911,-0.001 -1.363,-0.001c-0.81,0 -1.619,0 -2.428,0ZM0,5.393c0,0 7.073,-0.002 7.244,-0.002c1.165,0.037 2.421,0.141 3.357,0.637c0.327,0.174 0.624,0.454 0.805,0.781c0.36,0.651 0.21,1.587 -0.195,2.145c-0.34,0.475 -0.885,0.82 -1.385,1.069c-0.203,0.097 -0.483,0.184 -0.698,0.27c-0.059,0.021 -0.114,0.041 -0.194,0.066c0,0.004 0,0.003 0,0.006c0.079,0.013 0.159,0.021 0.238,0.034c0.224,0.03 0.629,0.103 0.838,0.15c1.062,0.252 2.224,0.913 2.234,2.478c0.003,0.584 -0.16,1.035 -0.331,1.367c-0.261,0.5 -0.702,0.883 -1.405,1.246c-1.352,0.693 -3.932,0.61 -5.959,0.61c-1.516,0 -3.033,0 -4.549,0c0,-3.561 0,-10.857 0,-10.857Z" style="fill:#005b9d;fill-rule:nonzero;"/><path d="M17.235,5.389c0.112,0.319 0.264,0.618 0.449,0.896l6.701,0c0.184,-0.278 0.336,-0.577 0.449,-0.896l-7.599,0Z" style="fill:#005b9d;fill-rule:nonzero;"/><path d="M18.501,7.179c0.692,0.562 1.574,0.896 2.533,0.896c0.96,0 1.841,-0.334 2.533,-0.896l-5.066,0Z" style="fill:#005b9d;fill-rule:nonzero;"/><path d="M17.005,4.046c0,0.151 0.009,0.301 0.025,0.448l8.008,0c0.017,-0.147 0.025,-0.297 0.025,-0.448c0,-0.151 -0.008,-0.301 -0.025,-0.448l-8.008,0c-0.016,0.147 -0.025,0.297 -0.025,0.448Z" style="fill:#005b9d;fill-rule:nonzero;"/><path d="M17.684,1.808c-0.185,0.277 -0.337,0.576 -0.449,0.895l7.599,0c-0.113,-0.319 -0.265,-0.618 -0.449,-0.895l-6.701,0Z" style="fill:#005b9d;fill-rule:nonzero;"/><path d="M23.567,0.913c-0.692,-0.56 -1.573,-0.896 -2.533,-0.896c-0.959,0 -1.84,0.336 -2.532,0.896l5.065,0Z" style="fill:#005b9d;fill-rule:nonzero;"/></g></svg>